v -0.0121239 1.961178E-09 -0.01212391
v -0.01367366 0.02331374 -3.954155E-10
v -0.009668732 0.02331374 -0.009668692
v -0.01714578 2.180691E-09 -3.954155E-10
v -0.01714578 2.180691E-09 -3.954155E-10
v -0.009668732 0.02331374 0.009668691
v -0.0121239 1.961178E-09 0.01212391
v -0.0121239 1.961178E-09 0.01212391
v 0 0.02331374 0.01367359
v 0 1.431225E-09 0.01714581
v 0 1.431225E-09 0.01714581
v 0.009668732 0.02331374 0.009668691
v 0.0121239 9.012731E-10 0.01212391
v 0.0121239 9.012731E-10 0.01212391
v 0.01367366 0.02331374 -3.954155E-10
v 0.01714578 8.407847E-10 -3.954155E-10
v 0.01714578 8.407847E-10 -3.954155E-10
v 0.009668732 0.02331374 -0.009668692
v 0.0121239 9.012731E-10 -0.01212391
v 0.0121239 9.012731E-10 -0.01212391
v 0 0.02331374 -0.01367359
v 0 1.431225E-09 -0.01714581
v 0 1.431225E-09 -0.01714581
v 0 0.02331374 -0.01367359
v -0.0121239 1.961178E-09 -0.01212391
v 0.009668732 0.02331374 -0.009668692
v 0 0.02331374 -0.01367359
v -0.009668732 0.02331374 -0.009668692
v 0.01367366 0.02331374 -3.954155E-10
v -0.009668732 0.02331374 0.009668691
v 0.009668732 0.02331374 0.009668691
v -0.01367366 0.02331374 -3.954155E-10
v -0.006751421 0.04011706 0.008480251
v 0.006751421 0.02271155 0.008480251
v 0.006751421 0.04011706 0.008480251
v -0.006751421 0.02271155 0.008480251
v 0.006751421 0.02271155 0.008480251
v 0.01043034 0.04011706 2.406853E-10
v 0.006751421 0.04011706 0.008480251
v 0.01043034 0.02271155 2.406853E-10
v 0.007375268 0.04011706 -0.007375319
v 0.007375268 0.02271155 -0.007375319
v 0 0.04011706 -0.01043027
v 0 0.02271155 -0.01043027
v -0.007375268 0.04011706 -0.007375319
v -0.007375268 0.02271155 -0.007375319
v -0.01043034 0.04011706 2.406853E-10
v -0.01043034 0.02271155 2.406853E-10
v -0.006751421 0.04011706 0.008480251
v -0.006751421 0.02271155 0.008480251
v -0.01043034 0.04011706 2.406853E-10
v 0.006751421 0.04011706 0.008480251
v 0.01043034 0.04011706 2.406853E-10
v -0.006751421 0.04011706 0.008480251
v 0.007375268 0.04011706 -0.007375319
v -0.007375268 0.04011706 -0.007375319
v 0 0.04011706 -0.01043027
v 0 0.02331374 0.01367359
v 0.009668732 0.02331374 0.009668691
vn -0.6982635 0.1464888 -0.6972869
vn -0.9873348 0.1464888 0
vn -0.6982635 0.1464888 -0.6972869
vn -0.9873348 0.1464888 0
vn -0.9873348 0.1464888 0
vn -0.6982635 0.1464888 0.6972869
vn -0.6982635 0.1464888 0.6972869
vn -0.6982635 0.1464888 0.6972869
vn 0 0.1464888 0.9863582
vn 0 0.1464888 0.9863582
vn 0 0.1464888 0.9863582
vn 0.6982635 0.1464888 0.6972869
vn 0.6982635 0.1464888 0.6972869
vn 0.6982635 0.1464888 0.6972869
vn 0.9873348 0.1464888 0
vn 0.9873348 0.1464888 0
vn 0.9873348 0.1464888 0
vn 0.6982635 0.1464888 -0.6972869
vn 0.6982635 0.1464888 -0.6972869
vn 0.6982635 0.1464888 -0.6972869
vn 0 0.1464888 -0.9863582
vn 0 0.1464888 -0.9863582
vn 0 0.1464888 -0.9863582
vn 0 0.1464888 -0.9863582
vn -0.6982635 0.1464888 -0.6972869
vn 0 0.999054 0
vn 0 0.999054 0
vn 0 0.999054 0
vn 0 0.999054 0
vn 0 0.999054 0
vn 0 0.999054 0
vn 0 0.999054 0
vn 0 0 0.9980773
vn 0 0 0.9980773
vn 0 0 0.9980773
vn 0 0 0.9980773
vn 0.9160436 0 0.3964965
vn 0.9980773 0 0.007812738
vn 0.9160436 0 0.3964965
vn 0.9980773 0 0.007812738
vn 0.7060763 0 -0.7050996
vn 0.7060763 0 -0.7050996
vn 0 0 -0.9980773
vn 0 0 -0.9980773
vn -0.7060763 0 -0.7050996
vn -0.7060763 0 -0.7050996
vn -0.9980773 0 0.007812738
vn -0.9980773 0 0.007812738
vn -0.9160436 0 0.3964965
vn -0.9160436 0 0.3964965
vn 0 0.999054 0
vn 0 0.999054 0
vn 0 0.999054 0
vn 0 0.999054 0
vn 0 0.999054 0
vn 0 0.999054 0
vn 0 0.999054 0
vn 0 0.999054 0
vn 0 0.999054 0
vt 0.3154953 0.2247142
vt 0.2696521 0.3116624
vt 0.3123472 0.3116624
vt 0.2665042 0.2247142
vt 0.2723339 0.2247142
vt 0.2258909 0.3116624
vt 0.2232088 0.2247142
vt 0.2283421 0.2247142
vt 0.1816021 0.3116624
vt 0.1791507 0.2247142
vt 0.1840537 0.2247142
vt 0.1373136 0.3116624
vt 0.1348622 0.2247142
vt 0.1399959 0.2247142
vt 0.09355284 0.3116624
vt 0.09087078 0.2247142
vt 0.0967011 0.2247142
vt 0.05085854 0.3116624
vt 0.04771005 0.2247142
vt 0.05471317 0.2247142
vt 0.009780243 0.3116624
vt 0.005925372 0.2247142
vt 0.3572811 0.2247142
vt 0.3534267 0.3116624
vt 0.3084931 0.2247142
vt 0.9075567 0.5875945
vt 0.9358658 0.5993204
vt 0.9641746 0.5875945
vt 0.8958305 0.5592855
vt 0.9641746 0.5309767
vt 0.9075567 0.5309767
vt 0.9759008 0.5592855
vt 0.4305633 0.3098252
vt 0.364428 0.2245756
vt 0.364428 0.3098252
vt 0.4305633 0.2245755
vt 0.6775112 0.2245755
vt 0.6322363 0.3098252
vt 0.6775112 0.3098252
vt 0.6322363 0.2245755
vt 0.5931365 0.3098252
vt 0.5931365 0.2245755
vt 0.5540373 0.3098252
vt 0.5540373 0.2245755
vt 0.5149381 0.3098252
vt 0.5149381 0.2245755
vt 0.4758384 0.3098252
vt 0.4758384 0.2245755
vt 0.4305633 0.3098252
vt 0.4305633 0.2245755
vt 0.6420189 0.6317257
vt 0.5578647 0.5901907
vt 0.539846 0.6317257
vt 0.6240001 0.5901907
vt 0.5548095 0.6678492
vt 0.6270554 0.6678492
vt 0.5909325 0.6828119
vt 0.9358658 0.5192508
vt 0.9075567 0.5309767

g 0000000000
f 1/1/1 2/2/2 3/3/3
f 1/1/1 4/4/4 2/2/2
f 5/5/5 6/6/6 2/2/2
f 5/5/5 7/7/7 6/6/6
f 8/8/8 9/9/9 6/6/6
f 8/8/8 10/10/10 9/9/9
f 11/11/11 12/12/12 9/9/9
f 11/11/11 13/13/13 12/12/12
f 14/14/14 15/15/15 12/12/12
f 14/14/14 16/16/16 15/15/15
f 17/17/17 18/18/18 15/15/15
f 17/17/17 19/19/19 18/18/18
f 20/20/20 21/21/21 18/18/18
f 20/20/20 22/22/22 21/21/21
f 23/23/23 3/3/3 24/24/24
f 23/23/23 25/25/25 3/3/3
f 26/26/26 27/27/27 28/28/28
f 29/29/29 30/30/30 59/59/59
f 29/29/29 32/32/32 30/30/30
f 33/33/33 34/34/34 35/35/35
f 33/33/33 36/36/36 34/34/34
f 37/37/37 38/38/38 39/39/39
f 37/37/37 40/40/40 38/38/38
f 40/40/40 41/41/41 38/38/38
f 40/40/40 42/42/42 41/41/41
f 42/42/42 43/43/43 41/41/41
f 42/42/42 44/44/44 43/43/43
f 44/44/44 45/45/45 43/43/43
f 44/44/44 46/46/46 45/45/45
f 46/46/46 47/47/47 45/45/45
f 46/46/46 48/48/48 47/47/47
f 48/48/48 49/49/49 47/47/47
f 48/48/48 50/50/50 49/49/49
f 51/51/51 52/52/52 53/53/53
f 51/51/51 54/54/54 52/52/52
f 51/51/51 55/55/55 56/56/56
f 51/51/51 53/53/53 55/55/55
f 56/56/56 55/55/55 57/57/57
f 59/59/59 30/30/30 58/58/58
f 26/26/26 32/32/32 29/29/29
f 26/26/26 28/28/28 32/32/32

